<svg width="16" height="16" viewBox="0 0 16 16" fill="none" xmlns="http://www.w3.org/2000/svg">
<path d="M13.3523 8.68542C13.3823 8.46667 13.3973 8.24062 13.3973 8C13.3973 7.76667 13.3823 7.53333 13.3448 7.31458L14.8666 6.1625C15.0015 6.06042 15.039 5.86354 14.9565 5.71771L13.5172 3.29688C13.4273 3.13646 13.2399 3.08542 13.075 3.13646L11.2834 3.83646C10.9085 3.55937 10.5112 3.32604 10.069 3.15104L9.7991 1.29896C9.76911 1.12396 9.61919 1 9.43928 1H6.56072C6.38081 1 6.23838 1.12396 6.2084 1.29896L5.93853 3.15104C5.49625 3.32604 5.09145 3.56667 4.72414 3.83646L2.93253 3.13646C2.76762 3.07812 2.58021 3.13646 2.49026 3.29688L1.05847 5.71771C0.968516 5.87083 0.998501 6.06042 1.14843 6.1625L2.67016 7.31458C2.63268 7.53333 2.6027 7.77396 2.6027 8C2.6027 8.22604 2.61769 8.46667 2.65517 8.68542L1.13343 9.8375C0.998501 9.93958 0.96102 10.1365 1.04348 10.2823L2.48276 12.7031C2.57271 12.8635 2.76012 12.9146 2.92504 12.8635L4.71664 12.1635C5.09145 12.4406 5.48876 12.674 5.93103 12.849L6.2009 14.701C6.23838 14.876 6.38081 15 6.56072 15H9.43928C9.61919 15 9.76912 14.876 9.7916 14.701L10.0615 12.849C10.5037 12.674 10.9085 12.4406 11.2759 12.1635L13.0675 12.8635C13.2324 12.9219 13.4198 12.8635 13.5097 12.7031L14.949 10.2823C15.039 10.1219 15.0015 9.93958 14.8591 9.8375L13.3523 8.68542ZM8 10.625C6.51574 10.625 5.30135 9.44375 5.30135 8C5.30135 6.55625 6.51574 5.375 8 5.375C9.48426 5.375 10.6987 6.55625 10.6987 8C10.6987 9.44375 9.48426 10.625 8 10.625Z" fill="#333333"/>
<path fill-rule="evenodd" clip-rule="evenodd" d="M5.71552 1.21452C5.78564 0.805259 6.13135 0.5 6.56066 0.5H9.43922C9.8557 0.5 10.2196 0.792628 10.2919 1.21452L10.294 1.22684L10.5233 2.80187C10.8175 2.93747 11.0919 3.09615 11.3523 3.27268L12.9098 2.66416L12.9271 2.65881C13.2681 2.55325 13.7205 2.64496 13.9496 3.04576L15.3918 5.47155C15.5939 5.82904 15.5087 6.30353 15.1683 6.56114V6.56114L13.8774 7.53845C13.8914 7.69302 13.8972 7.84819 13.8972 8C13.8972 8.15718 13.8914 8.30971 13.8794 8.45909L15.1578 9.43654C15.5141 9.69758 15.59 10.1613 15.3851 10.5268L15.3789 10.5379L13.9421 12.9542C13.7211 13.3408 13.2716 13.4661 12.9007 13.3349L12.893 13.3322L11.3466 12.728C11.0864 12.9055 10.8095 13.0637 10.5158 13.1984L10.2868 14.7698C10.2276 15.2102 9.84964 15.5 9.43922 15.5H6.56066C6.12806 15.5 5.79516 15.1944 5.71193 14.8058L5.70845 14.7895L5.47657 13.1981C5.18241 13.0625 4.90793 12.9039 4.64755 12.7273L3.09009 13.3358L3.07281 13.3412C2.73174 13.4467 2.27938 13.355 2.0503 12.9542L0.608072 10.5284C0.405934 10.171 0.491209 9.69647 0.831567 9.43886V9.43886L2.12263 8.46142C2.10848 8.30464 2.10264 8.14788 2.10264 8C2.10264 7.84381 2.11466 7.68568 2.13263 7.5348L0.85456 6.5672C0.473105 6.29797 0.422252 5.81348 0.627297 5.46445L0.628047 5.46317L2.05748 3.04632C2.27838 2.65929 2.72811 2.53382 3.09921 2.66508L3.10686 2.66779L4.65582 3.27298C4.91298 3.09936 5.18906 2.93879 5.48401 2.80222L5.71552 1.21452ZM6.68432 1.5L6.39152 3.5095L6.12243 3.61597C5.72848 3.77185 5.36107 3.98897 5.02006 4.23944L4.79835 4.40229L2.86425 3.64661L1.56196 5.8485L3.21426 7.09942L3.16292 7.39902C3.12769 7.60462 3.10264 7.81406 3.10264 8C3.10264 8.20643 3.1165 8.41754 3.14793 8.60098L3.19926 8.90058L1.54723 10.1513L2.85651 12.3535L4.79179 11.5973L5.01381 11.7615C5.3602 12.0175 5.71981 12.2277 6.11493 12.384L6.38402 12.4905L6.67682 14.5H9.31556L9.60836 12.4905L9.87745 12.384C10.2751 12.2267 10.6408 12.0163 10.9747 11.7644L11.1976 11.5962L13.1359 12.3535L14.4455 10.1507L12.8174 8.90584L12.8569 8.61751C12.8836 8.42283 12.8972 8.21955 12.8972 8C12.8972 7.78672 12.8834 7.58279 12.8519 7.39902L12.8006 7.09942L14.4526 5.8487L13.1434 3.64652L11.2081 4.40265L10.9861 4.23852C10.6397 3.98245 10.2801 3.77231 9.88494 3.61597L9.61585 3.5095L9.32305 1.5H6.68432ZM7.99994 5.875C6.77869 5.875 5.80129 6.84534 5.80129 8C5.80129 9.15466 6.77869 10.125 7.99994 10.125C9.22119 10.125 10.1986 9.15466 10.1986 8C10.1986 6.84534 9.22119 5.875 7.99994 5.875ZM4.80129 8C4.80129 6.26716 6.25267 4.875 7.99994 4.875C9.74721 4.875 11.1986 6.26716 11.1986 8C11.1986 9.73284 9.74721 11.125 7.99994 11.125C6.25267 11.125 4.80129 9.73284 4.80129 8Z" fill="#828282"/>
</svg>
