<svg width="14" height="15" viewBox="0 0 14 15" fill="none" xmlns="http://www.w3.org/2000/svg">
<path d="M7 0.0270996C3.13306 0.0270996 0 3.21688 0 7.15381C0 11.0907 3.13306 14.2805 7 14.2805C10.8669 14.2805 14 11.0907 14 7.15381C14 3.21688 10.8669 0.0270996 7 0.0270996ZM10.4323 9.02457C10.5649 9.15963 10.5649 9.37803 10.4323 9.51309L9.31452 10.6482C9.18185 10.7833 8.96734 10.7833 8.83468 10.6482L7 8.76307L5.1625 10.6482C5.02984 10.7833 4.81532 10.7833 4.68266 10.6482L3.56774 9.51022C3.43508 9.37516 3.43508 9.15676 3.56774 9.0217L5.41935 7.15381L3.56774 5.28305C3.43508 5.14798 3.43508 4.92959 3.56774 4.79452L4.68548 3.65655C4.81814 3.52149 5.03266 3.52149 5.16532 3.65655L7 5.54455L8.8375 3.65942C8.97016 3.52436 9.18468 3.52436 9.31734 3.65942L10.4351 4.7974C10.5677 4.93246 10.5677 5.15086 10.4351 5.28592L8.58064 7.15381L10.4323 9.02457Z" fill="#EB5757"/>
</svg>
