<svg width="15" height="19" viewBox="0 0 15 19" fill="none" xmlns="http://www.w3.org/2000/svg">
<path fill-rule="evenodd" clip-rule="evenodd" d="M0.5 4.5625H14.5V18.5625H0.5V4.5625ZM1.5 5.5625V17.5625H13.5V5.5625H1.5Z" fill="white"/>
<path fill-rule="evenodd" clip-rule="evenodd" d="M5.55922 2.90559C5.05134 3.90705 4.75 5.44214 4.75 7.5H3.75C3.75 5.3697 4.05803 3.65479 4.66735 2.45329C5.28742 1.23058 6.24876 0.5 7.5 0.5C8.75124 0.5 9.71258 1.23058 10.3327 2.45329C10.942 3.65479 11.25 5.3697 11.25 7.5H10.25C10.25 5.44214 9.94866 3.90705 9.44078 2.90559C8.94367 1.92534 8.28001 1.5 7.5 1.5C6.71999 1.5 6.05633 1.92534 5.55922 2.90559Z" fill="white"/>
</svg>
