<svg width="13" height="14" viewBox="0 0 13 14" fill="none" xmlns="http://www.w3.org/2000/svg">
<path d="M9.28571 12.25V13.3438C9.28571 13.7062 8.97392 14 8.58929 14H0.696429C0.311797 14 0 13.7062 0 13.3438V3.28125C0 2.91881 0.311797 2.625 0.696429 2.625H2.78571V10.7188C2.78571 11.5631 3.51467 12.25 4.41071 12.25H9.28571ZM9.28571 2.84375V0H4.41071C4.02608 0 3.71429 0.293809 3.71429 0.65625V10.7188C3.71429 11.0812 4.02608 11.375 4.41071 11.375H12.3036C12.6882 11.375 13 11.0812 13 10.7188V3.5H9.98214C9.59911 3.5 9.28571 3.20469 9.28571 2.84375ZM12.796 1.9953L10.8825 0.192199C10.7519 0.0691366 10.5748 9.09989e-07 10.3901 0H10.2143V2.625H13V2.45932C13 2.28528 12.9266 2.11837 12.796 1.9953Z" fill="white"/>
</svg>
