<svg width="14" height="15" viewBox="0 0 14 15" fill="none" xmlns="http://www.w3.org/2000/svg">
<path d="M14 7.18553C14 11.1215 10.866 14.3122 7 14.3122C3.134 14.3122 0 11.1215 0 7.18553C0 3.24956 3.134 0.0588379 7 0.0588379C10.866 0.0588379 14 3.24956 14 7.18553ZM6.19031 10.9591L11.3839 5.67151C11.5602 5.49196 11.5602 5.20083 11.3839 5.02129L10.7452 4.37106C10.5688 4.19149 10.2829 4.19149 10.1065 4.37106L5.87097 8.68323L3.8935 6.66997C3.71714 6.49042 3.43119 6.49042 3.2548 6.66997L2.61614 7.32019C2.43978 7.49974 2.43978 7.79087 2.61614 7.97042L5.55162 10.959C5.728 11.1386 6.01393 11.1386 6.19031 10.9591Z" fill="#ACDA53"/>
</svg>
