<svg width="12" height="13" viewBox="0 0 12 13" fill="none" xmlns="http://www.w3.org/2000/svg">
<path fill-rule="evenodd" clip-rule="evenodd" d="M3.29947 12.6497L0.624379 12.9557C0.266263 12.9967 -0.036307 12.683 0.0035357 12.3119L0.301184 9.53812L6.8143 2.78997L9.81469 5.89886L3.29947 12.6497ZM8.42493 5.89886L2.82919 11.697L1.05347 11.9001L1.25888 9.98582L6.81427 4.22996L8.42493 5.89886ZM10.3451 5.34955L11.6704 3.97627C12.1099 3.52069 12.1099 2.78245 11.6704 2.32711L10.2616 0.867378C9.82219 0.412046 9.10947 0.412046 8.67003 0.867378L7.34467 2.24066L10.3451 5.34955ZM8.73443 2.24066L9.38958 1.56182C9.41699 1.53342 9.44355 1.52588 9.46583 1.52588C9.4881 1.52588 9.51467 1.53342 9.54208 1.56182L10.9509 3.02155C10.9801 3.05179 11 3.09652 11 3.1516C11 3.20668 10.98 3.25158 10.9507 3.28202L10.3451 3.90954L8.73443 2.24066Z" fill="#E0E0E0"/>
</svg>
