<svg width="18" height="20" viewBox="0 0 18 20" fill="none" xmlns="http://www.w3.org/2000/svg">
<path fill-rule="evenodd" clip-rule="evenodd" d="M10.2387 0.327637L17.9273 5.71122L17.707 6.10555C17.3603 6.72638 17.0208 7.20146 16.5613 7.56872C16.1397 7.90576 15.6489 8.12663 15.0303 8.31318L12.1583 12.4148C12.5119 13.7421 12.5933 14.7447 12.432 15.6613C12.2626 16.6233 11.8329 17.4408 11.2858 18.3817L11.0123 18.8519L6.06182 15.3855L3.32613 19.2925C3.16774 19.5187 2.85596 19.5737 2.62976 19.4153C2.40356 19.2569 2.34858 18.9451 2.50697 18.7189L5.24266 14.8119L0.332031 11.3735L0.612218 10.9651C1.22444 10.0728 1.7996 9.36312 2.63114 8.85296C3.41846 8.36994 4.39061 8.0924 5.75473 7.93969L8.64946 3.80559C8.68813 3.1283 8.76654 2.57432 8.95311 2.07578C9.15728 1.53022 9.47691 1.08707 9.94208 0.623361L10.2387 0.327637ZM10.365 1.63681C10.1385 1.90495 9.99201 2.15284 9.88968 2.42627C9.74542 2.81175 9.67505 3.28379 9.64068 3.99894L9.63374 4.14333L6.31144 8.88807L6.08281 8.91066C4.66582 9.0507 3.8007 9.30863 3.15407 9.70534C2.61483 10.0362 2.19262 10.4842 1.72259 11.1264L10.6905 17.4058C11.0807 16.6999 11.3352 16.1238 11.4471 15.4879C11.5818 14.7226 11.5173 13.8206 11.1327 12.4561L11.0684 12.2279L14.4144 7.44945L14.586 7.40108C15.2268 7.22058 15.6251 7.03691 15.937 6.78759C16.172 6.59976 16.3794 6.35756 16.604 6.00541L10.365 1.63681Z" fill="#ACDA53"/>
</svg>
