<svg width="15" height="16" viewBox="0 0 15 16" fill="none" xmlns="http://www.w3.org/2000/svg">
<path d="M15 8.36382C15 7.45412 14.8381 6.58191 14.5412 5.775C14.3382 8.1525 13.0707 9.37368 11.7463 8.805C10.5057 8.27206 11.3418 6.19456 11.4035 5.20324C11.5076 3.52279 11.3982 1.59926 8.34574 0C9.61412 2.42647 8.49265 3.93397 7.31647 4.02574C6.01147 4.12765 4.81632 2.90426 5.2575 0.918971C3.82897 1.97162 3.7875 3.74338 4.22824 4.88956C4.68794 6.08426 4.20971 7.07691 3.08868 7.18721C1.83574 7.31074 1.13956 5.84559 1.78147 3.51088C0.670588 4.81897 0 6.51309 0 8.36382C0 12.506 3.35779 15.8638 7.5 15.8638C11.6422 15.8638 15 12.506 15 8.36382Z" fill="#F4900C"/>
<path d="M12.0858 10.5692C12.1511 11.9298 10.9559 12.4632 10.3127 12.2056C9.38355 11.8337 9.63282 11.1948 9.3937 9.8713C9.15458 8.54777 8.23561 7.6288 6.87547 7.22424C7.86811 10.0182 6.32532 11.0479 5.51664 11.2319C4.69076 11.4198 3.86091 11.2314 3.76605 9.4641C2.80253 10.4232 2.20605 11.7503 2.20605 13.2167C2.20605 13.3791 2.2162 13.5388 2.23032 13.6976C3.58473 15.0362 5.44517 15.8638 7.50017 15.8638C9.55517 15.8638 11.4156 15.0362 12.77 13.6976C12.7841 13.5388 12.7943 13.3791 12.7943 13.2167C12.7943 12.2519 12.5366 11.3479 12.0858 10.5692Z" fill="#FFCC4D"/>
</svg>
