<svg width="16" height="14" viewBox="0 0 16 14" fill="none" xmlns="http://www.w3.org/2000/svg">
<path d="M14.5 0.600098H1.5C0.671562 0.600098 0 1.31643 0 2.2001V11.8001C0 12.6838 0.671562 13.4001 1.5 13.4001H14.5C15.3284 13.4001 16 12.6838 16 11.8001V2.2001C16 1.31643 15.3284 0.600098 14.5 0.600098ZM14.5 2.2001V3.56026C13.7993 4.1689 12.6823 5.1153 10.2942 7.10993C9.76787 7.5515 8.72538 8.61233 8 8.59996C7.27475 8.61246 6.23191 7.55133 5.70584 7.10993C3.31813 5.1156 2.20078 4.169 1.5 3.56026V2.2001H14.5ZM1.5 11.8001V5.61336C2.21606 6.22173 3.23153 7.07543 4.77931 8.36823C5.46234 8.94173 6.6585 10.2078 8 10.2001C9.33491 10.2078 10.5159 8.9601 11.2204 8.3685C12.7682 7.07573 13.7839 6.2218 14.5 5.6134V11.8001H1.5Z" fill="white"/>
</svg>
