<svg width="51" height="50" viewBox="0 0 51 50" fill="none" xmlns="http://www.w3.org/2000/svg">
<rect x="1.38484" y="25" width="34.3553" height="34.3553" transform="rotate(-45 1.38484 25)" stroke="#4F4F4F"/>
<circle cx="30.1109" cy="22.2222" r="5.72222" fill="#333333" stroke="#ACDA53"/>
<path d="M26.0556 29.7778C26.0556 29.6603 25.9956 29.4923 25.7651 29.2827C25.5345 29.073 25.173 28.8612 24.6838 28.6731C23.7088 28.2981 22.3279 28.0556 20.7778 28.0556C19.2276 28.0556 17.8468 28.2981 16.8718 28.6731C16.3826 28.8612 16.021 29.073 15.7904 29.2827C15.56 29.4923 15.5 29.6603 15.5 29.7778C15.5 29.8953 15.56 30.0633 15.7904 30.2728C16.021 30.4825 16.3826 30.6943 16.8718 30.8825C17.8468 31.2575 19.2276 31.5 20.7778 31.5C22.3279 31.5 23.7088 31.2575 24.6838 30.8825C25.173 30.6943 25.5345 30.4825 25.7651 30.2728C25.9956 30.0633 26.0556 29.8953 26.0556 29.7778Z" fill="#333333" stroke="#ACDA53"/>
<path d="M26.0556 27.111C26.0556 26.9935 25.9956 26.8255 25.7651 26.616C25.5345 26.4063 25.173 26.1945 24.6838 26.0064C23.7088 25.6313 22.3279 25.3888 20.7778 25.3888C19.2276 25.3888 17.8468 25.6313 16.8718 26.0064C16.3826 26.1945 16.021 26.4063 15.7904 26.616C15.56 26.8255 15.5 26.9935 15.5 27.111C15.5 27.2285 15.56 27.3965 15.7904 27.6061C16.021 27.8158 16.3826 28.0276 16.8718 28.2157C17.8468 28.5907 19.2276 28.8333 20.7778 28.8333C22.3279 28.8333 23.7088 28.5907 24.6838 28.2157C25.173 28.0276 25.5345 27.8158 25.7651 27.6061C25.9956 27.3965 26.0556 27.2285 26.0556 27.111Z" fill="#333333" stroke="#ACDA53"/>
<path d="M26.0556 24.4445C26.0556 24.327 25.9956 24.159 25.7651 23.9495C25.5345 23.7398 25.173 23.528 24.6838 23.3398C23.7088 22.9648 22.3279 22.7223 20.7778 22.7223C19.2276 22.7223 17.8468 22.9648 16.8718 23.3398C16.3826 23.528 16.021 23.7398 15.7904 23.9495C15.56 24.159 15.5 24.327 15.5 24.4445C15.5 24.562 15.56 24.73 15.7904 24.9396C16.021 25.1493 16.3826 25.3611 16.8718 25.5492C17.8468 25.9242 19.2276 26.1667 20.7778 26.1667C22.3279 26.1667 23.7088 25.9242 24.6838 25.5492C25.173 25.3611 25.5345 25.1493 25.7651 24.9396C25.9956 24.73 26.0556 24.562 26.0556 24.4445Z" fill="#333333" stroke="#ACDA53"/>
<path d="M26.0556 21.7778C26.0556 21.6603 25.9956 21.4923 25.7651 21.2827C25.5345 21.073 25.173 20.8612 24.6838 20.6731C23.7088 20.2981 22.3279 20.0556 20.7778 20.0556C19.2276 20.0556 17.8468 20.2981 16.8718 20.6731C16.3826 20.8612 16.021 21.073 15.7904 21.2827C15.56 21.4923 15.5 21.6603 15.5 21.7778C15.5 21.8953 15.56 22.0633 15.7904 22.2728C16.021 22.4825 16.3826 22.6943 16.8718 22.8825C17.8468 23.2575 19.2276 23.5 20.7778 23.5C22.3279 23.5 23.7088 23.2575 24.6838 22.8825C25.173 22.6943 25.5345 22.4825 25.7651 22.2728C25.9956 22.0633 26.0556 21.8953 26.0556 21.7778Z" fill="#333333" stroke="#ACDA53"/>
<path d="M32.544 23.52C32.544 23.9307 32.3867 24.28 32.072 24.568C31.7573 24.8507 31.296 25.008 30.688 25.04V25.96H30.288V25.048C29.8987 25.0267 29.5307 24.952 29.184 24.824C28.8427 24.6907 28.5733 24.5227 28.376 24.32L28.608 23.864C28.7947 24.0453 29.0373 24.1973 29.336 24.32C29.64 24.4427 29.9573 24.5147 30.288 24.536V22.432C29.92 22.3413 29.6133 22.2453 29.368 22.144C29.1227 22.0373 28.9173 21.8853 28.752 21.688C28.592 21.4853 28.512 21.2187 28.512 20.888C28.512 20.4773 28.6613 20.1333 28.96 19.856C29.2587 19.5733 29.7013 19.408 30.288 19.36V18.44H30.688V19.352C30.992 19.3627 31.2853 19.4133 31.568 19.504C31.856 19.5893 32.104 19.704 32.312 19.848L32.112 20.32C31.8933 20.1813 31.6613 20.072 31.416 19.992C31.1707 19.912 30.928 19.8667 30.688 19.856V21.976C31.0827 22.072 31.4053 22.1707 31.656 22.272C31.9067 22.368 32.1173 22.5173 32.288 22.72C32.4587 22.9227 32.544 23.1893 32.544 23.52ZM29.096 20.872C29.096 21.1493 29.1973 21.36 29.4 21.504C29.608 21.648 29.904 21.7707 30.288 21.872V19.872C29.8933 19.904 29.5947 20.0133 29.392 20.2C29.1947 20.3813 29.096 20.6053 29.096 20.872ZM30.688 24.536C31.1093 24.504 31.4267 24.4 31.64 24.224C31.8533 24.048 31.96 23.824 31.96 23.552C31.96 23.264 31.8507 23.048 31.632 22.904C31.4133 22.76 31.0987 22.6373 30.688 22.536V24.536Z" fill="#ACDA53"/>
</svg>
