<svg width="51" height="50" viewBox="0 0 51 50" fill="none" xmlns="http://www.w3.org/2000/svg">
<rect x="1.38484" y="25" width="34.3553" height="34.3553" transform="rotate(-45 1.38484 25)" stroke="#4F4F4F"/>
<path d="M36.3449 18.7837L33.9074 26.8898C33.8444 27.1 33.7405 27.2956 33.6018 27.4656C33.4631 27.6356 33.2922 27.7766 33.0989 27.8804C32.9057 27.9843 32.6939 28.0491 32.4756 28.0711C32.2572 28.0931 32.0368 28.0718 31.8267 28.0085L22.1191 25.0957L18.166 17.7432L25.5186 13.7901L35.2301 16.7103C35.6521 16.8385 36.0062 17.1286 36.2151 17.5171C36.424 17.9055 36.4706 18.3609 36.3449 18.7837V18.7837Z" stroke="#ACDA53" stroke-linecap="round" stroke-linejoin="round"/>
<path d="M23.8184 19.4431L23.8262 19.4389" stroke="#ACDA53" stroke-width="2" stroke-linecap="round" stroke-linejoin="round"/>
<path d="M33.5187 27.5249L27.5333 33.5103C27.3782 33.6656 27.1941 33.7887 26.9914 33.8727C26.7887 33.9568 26.5714 34 26.352 34C26.1326 34 25.9154 33.9568 25.7127 33.8727C25.51 33.7887 25.3259 33.6656 25.1708 33.5103L18 26.3479V18H26.3479L33.5187 25.1708C33.8296 25.4836 34.0042 25.9068 34.0042 26.3479C34.0042 26.7889 33.8296 27.2121 33.5187 27.5249Z" fill="#333333" stroke="#ACDA53" stroke-linecap="round" stroke-linejoin="round"/>
<path d="M22.1738 22.1738H22.1827" stroke="#ACDA53" stroke-width="2" stroke-linecap="round" stroke-linejoin="round"/>
</svg>
