<svg width="16" height="16" viewBox="0 0 16 16" fill="none" xmlns="http://www.w3.org/2000/svg">
<path fill-rule="evenodd" clip-rule="evenodd" d="M0.549212 0.262448C0.849514 0.0617024 1.20515 0 1.49167 0H4.375C5.10114 0 5.7 0.598857 5.7 1.325C5.7 2.29851 5.85037 3.23663 6.14101 4.10855L6.14373 4.11673C6.28836 4.57691 6.18301 5.09412 5.82659 5.46373L5.80951 5.48145L4.46529 6.62576C5.56121 8.69616 7.42959 10.5054 9.44485 11.5632L10.5182 10.2164L10.5381 10.1964C10.8948 9.83976 11.417 9.71489 11.891 9.87549C12.767 10.1592 13.7055 10.3167 14.675 10.3167C15.4011 10.3167 16 10.9155 16 11.6417V14.5167C16 14.8199 15.9246 15.1739 15.7187 15.4674C15.4985 15.7812 15.1434 16 14.675 16C6.66572 16 0 9.343 0 1.325C0 0.841031 0.222543 0.480819 0.549212 0.262448ZM1.03123 1.17072C1.01708 1.19681 1 1.24315 1 1.325C1 8.79033 7.21762 15 14.675 15C14.7465 15 14.7899 14.9848 14.8171 14.9702C14.8453 14.9551 14.8732 14.9313 14.9001 14.893C14.9588 14.8094 15 14.6718 15 14.5167V11.6417C15 11.4678 14.8489 11.3167 14.675 11.3167C13.5957 11.3167 12.5521 11.1412 11.5791 10.8256L11.5711 10.823C11.4692 10.7881 11.3517 10.8087 11.2613 10.8884L9.7267 12.814L9.36806 12.6429C6.91122 11.471 4.61758 9.26542 3.39112 6.71681L3.22388 6.36928L5.11991 4.75522C5.20214 4.66055 5.22606 4.53606 5.19066 4.41979C4.86574 3.44315 4.7 2.39966 4.7 1.325C4.7 1.15114 4.54886 1 4.375 1H1.49167C1.32819 1 1.18799 1.0383 1.10495 1.0938C1.06801 1.1185 1.04569 1.14404 1.03123 1.17072Z" fill="#828282"/>
</svg>
