<svg width="14" height="20" viewBox="0 0 14 20" fill="none" xmlns="http://www.w3.org/2000/svg">
<path fill-rule="evenodd" clip-rule="evenodd" d="M6.34167 19.2355C6.74884 19.7219 7 20 7 20C7 20 7.25116 19.7219 7.65833 19.2355C9.40073 17.1537 14 11.2555 14 7C14 3.13 10.87 0 7 0C3.13 0 0 3.13 0 7C0 11.2555 4.59927 17.1537 6.34167 19.2355ZM7 18.4634C7.0983 18.345 7.20445 18.2159 7.31729 18.0769C7.96066 17.2841 8.81684 16.1755 9.67104 14.9094C10.5272 13.6406 11.3689 12.2317 11.9936 10.8372C12.6242 9.4297 13 8.11016 13 7C13 3.68228 10.3177 1 7 1C3.68228 1 1 3.68228 1 7C1 8.11016 1.37577 9.4297 2.00635 10.8372C2.63106 12.2317 3.47285 13.6406 4.32896 14.9094C5.18316 16.1755 6.03934 17.2841 6.68271 18.0769C6.79555 18.2159 6.9017 18.345 7 18.4634ZM7 10.5C5.06772 10.5 3.5 8.93229 3.5 7C3.5 5.06772 5.06772 3.5 7 3.5C8.93229 3.5 10.5 5.06772 10.5 7C10.5 8.93229 8.93229 10.5 7 10.5ZM4.5 7C4.5 8.38 5.62 9.5 7 9.5C8.38 9.5 9.5 8.38 9.5 7C9.5 5.62 8.38 4.5 7 4.5C5.62 4.5 4.5 5.62 4.5 7Z" fill="#828282"/>
</svg>
