<svg width="15" height="18" viewBox="0 0 15 18" fill="none" xmlns="http://www.w3.org/2000/svg">
<path fill-rule="evenodd" clip-rule="evenodd" d="M7.5 8.03125C9.19137 8.03125 10.5625 6.66012 10.5625 4.96875C10.5625 3.27738 9.19137 1.90625 7.5 1.90625C5.80863 1.90625 4.4375 3.27738 4.4375 4.96875C4.4375 6.66012 5.80863 8.03125 7.5 8.03125ZM7.5 9.03125C9.74366 9.03125 11.5625 7.21241 11.5625 4.96875C11.5625 2.72509 9.74366 0.90625 7.5 0.90625C5.25634 0.90625 3.4375 2.72509 3.4375 4.96875C3.4375 7.21241 5.25634 9.03125 7.5 9.03125Z" fill="white"/>
<path fill-rule="evenodd" clip-rule="evenodd" d="M2.55025 12.2065C3.86301 10.8937 5.64349 10.1562 7.5 10.1562C9.35652 10.1562 11.137 10.8937 12.4497 12.2065C13.7625 13.5193 14.5 15.2997 14.5 17.1562H13.5C13.5 15.565 12.8679 14.0388 11.7426 12.9136C10.6174 11.7884 9.0913 11.1562 7.5 11.1562C5.9087 11.1562 4.38258 11.7884 3.25736 12.9136C2.13214 14.0388 1.5 15.565 1.5 17.1562H0.5C0.5 15.2997 1.2375 13.5193 2.55025 12.2065Z" fill="white"/>
</svg>
