<svg width="17" height="14" viewBox="0 0 17 14" fill="none" xmlns="http://www.w3.org/2000/svg">
<path d="M8.5 0C3.80574 0 0 2.91 0 6.5C0 8.04875 0.710879 9.46906 1.89324 10.5856C1.47621 12.1578 0.0896484 13.5616 0.0730469 13.5781C0.0372947 13.6136 0.0133702 13.6581 0.00423509 13.7062C-0.00490003 13.7543 0.00115537 13.8039 0.0216517 13.8488C0.0421479 13.8937 0.0761851 13.9319 0.11955 13.9588C0.162914 13.9857 0.213702 14 0.265625 14C2.46566 14 4.11686 13.0078 4.93398 12.3944C6.01939 12.7791 7.22467 13 8.5 13C13.1943 13 17 10.09 17 6.5C17 2.91 13.1943 0 8.5 0ZM9.29688 9.45125V10C9.29688 10.2763 9.05914 10.5 8.76562 10.5H8.23438C7.94086 10.5 7.70312 10.2763 7.70312 10V9.44594C7.32395 9.40375 6.96336 9.28375 6.64793 9.08781C6.44141 8.95937 6.42148 8.67812 6.59646 8.51344L7.17818 7.96594C7.30236 7.84906 7.4873 7.83344 7.64668 7.9025C7.75227 7.94813 7.86781 7.97188 7.98734 7.97188H9.07574C9.23047 7.97188 9.35598 7.85375 9.35598 7.70875C9.35598 7.59156 9.27231 7.4875 9.15277 7.45531L7.49029 7.00844C6.75152 6.81 6.16184 6.23625 6.06555 5.51875C5.93107 4.51656 6.6974 3.66156 7.70312 3.54844V3C7.70312 2.72375 7.94086 2.5 8.23438 2.5H8.76562C9.05914 2.5 9.29688 2.72375 9.29688 3V3.55406C9.67605 3.59625 10.0366 3.71625 10.3521 3.91219C10.5586 4.04063 10.5785 4.32188 10.4035 4.48656L9.82182 5.03406C9.69764 5.15094 9.5127 5.16656 9.35332 5.0975C9.24642 5.0515 9.1302 5.02783 9.01266 5.02812H7.92426C7.76953 5.02812 7.64402 5.14625 7.64402 5.29125C7.64402 5.40844 7.7277 5.5125 7.84723 5.54469L9.50971 5.99156C10.2485 6.19031 10.8382 6.76375 10.9345 7.48125C11.0689 8.48312 10.3026 9.33813 9.29688 9.45125Z" fill="#828282"/>
</svg>
