<svg width="16" height="17" viewBox="0 0 16 17" fill="none" xmlns="http://www.w3.org/2000/svg">
<path fill-rule="evenodd" clip-rule="evenodd" d="M10.2846 10.9349C10.4713 10.7422 10.7783 10.7379 10.9702 10.9254L15.8532 15.6954C16.0452 15.8829 16.0494 16.1911 15.8627 16.3839C15.676 16.5766 15.369 16.5809 15.1771 16.3934L10.294 11.6234C10.1021 11.4359 10.0979 11.1277 10.2846 10.9349Z" fill="white"/>
<path fill-rule="evenodd" clip-rule="evenodd" d="M6.34711 12.3047C9.31697 12.3047 11.7245 9.88709 11.7245 6.90483C11.7245 3.92258 9.31697 1.50499 6.34711 1.50499C3.37725 1.50499 0.969697 3.92258 0.969697 6.90483C0.969697 9.88709 3.37725 12.3047 6.34711 12.3047ZM6.34711 13.2784C9.85252 13.2784 12.6942 10.4249 12.6942 6.90483C12.6942 3.3848 9.85252 0.53125 6.34711 0.53125C2.8417 0.53125 0 3.3848 0 6.90483C0 10.4249 2.8417 13.2784 6.34711 13.2784Z" fill="white"/>
</svg>
