<svg width="14" height="15" viewBox="0 0 14 15" fill="none" xmlns="http://www.w3.org/2000/svg">
<path d="M7 0.592773C10.8669 0.592773 14 3.78255 14 7.71948C14 11.6564 10.8669 14.8462 7 14.8462C3.13306 14.8462 0 11.6564 0 7.71948C0 3.78255 3.13306 0.592773 7 0.592773ZM6.18427 4.71937L8.31532 6.79991H3.16129C2.78589 6.79991 2.48387 7.10739 2.48387 7.48959V7.94938C2.48387 8.33157 2.78589 8.63906 3.16129 8.63906H8.31532L6.18427 10.7196C5.91048 10.9868 5.90484 11.4323 6.17298 11.7053L6.48347 12.0185C6.74879 12.2886 7.17782 12.2886 7.44032 12.0185L11.1859 8.20801C11.4512 7.93788 11.4512 7.50108 11.1859 7.23383L7.44032 3.41759C7.175 3.14747 6.74597 3.14747 6.48347 3.41759L6.17298 3.73082C5.90484 4.0067 5.91048 4.45212 6.18427 4.71937Z" fill="white"/>
</svg>
