<svg width="17" height="22" viewBox="0 0 17 22" fill="none" xmlns="http://www.w3.org/2000/svg">
<circle cx="11.667" cy="4.00682" r="2.44628" stroke="#828282"/>
<mask id="path-2-inside-1" fill="white">
<path d="M16.9709 13.4351C16.9709 12.7387 16.8337 12.0491 16.5672 11.4057C16.3007 10.7622 15.91 10.1776 15.4176 9.68514C14.9251 9.19268 14.3405 8.80204 13.697 8.53553C13.0536 8.26901 12.364 8.13184 11.6676 8.13184C10.9711 8.13184 10.2815 8.26901 9.63807 8.53553C8.99465 8.80204 8.41002 9.19268 7.91756 9.68514C7.4251 10.1776 7.03446 10.7622 6.76795 11.4057C6.50143 12.0491 6.36426 12.7387 6.36426 13.4351L11.6676 13.4351H16.9709Z"/>
</mask>
<path d="M16.9709 13.4351C16.9709 12.7387 16.8337 12.0491 16.5672 11.4057C16.3007 10.7622 15.91 10.1776 15.4176 9.68514C14.9251 9.19268 14.3405 8.80204 13.697 8.53553C13.0536 8.26901 12.364 8.13184 11.6676 8.13184C10.9711 8.13184 10.2815 8.26901 9.63807 8.53553C8.99465 8.80204 8.41002 9.19268 7.91756 9.68514C7.4251 10.1776 7.03446 10.7622 6.76795 11.4057C6.50143 12.0491 6.36426 12.7387 6.36426 13.4351L11.6676 13.4351H16.9709Z" stroke="#828282" stroke-width="2" mask="url(#path-2-inside-1)"/>
<circle cx="6.36415" cy="3.53553" r="3.03553" fill="#333333" stroke="#828282"/>
<mask id="path-4-inside-2" fill="white">
<path d="M12.7279 14.8493C12.7279 14.0136 12.5633 13.186 12.2435 12.4139C11.9237 11.6418 11.4549 10.9403 10.864 10.3493C10.273 9.75836 9.57146 9.2896 8.79934 8.96978C8.02723 8.64996 7.19969 8.48535 6.36396 8.48535C5.52823 8.48535 4.70069 8.64996 3.92858 8.96978C3.15647 9.2896 2.45491 9.75836 1.86396 10.3493C1.27301 10.9403 0.804246 11.6418 0.484428 12.4139C0.164609 13.186 -7.30616e-08 14.0136 0 14.8493L6.36396 14.8493H12.7279Z"/>
</mask>
<path d="M12.7279 14.8493C12.7279 14.0136 12.5633 13.186 12.2435 12.4139C11.9237 11.6418 11.4549 10.9403 10.864 10.3493C10.273 9.75836 9.57146 9.2896 8.79934 8.96978C8.02723 8.64996 7.19969 8.48535 6.36396 8.48535C5.52823 8.48535 4.70069 8.64996 3.92858 8.96978C3.15647 9.2896 2.45491 9.75836 1.86396 10.3493C1.27301 10.9403 0.804246 11.6418 0.484428 12.4139C0.164609 13.186 -7.30616e-08 14.0136 0 14.8493L6.36396 14.8493H12.7279Z" fill="#333333" stroke="#828282" stroke-width="2" mask="url(#path-4-inside-2)"/>
</svg>
