<svg width="16" height="16" viewBox="0 0 16 16" fill="none" xmlns="http://www.w3.org/2000/svg">
<path d="M4.4 0C1.9696 0 0 1.9696 0 4.4C0 5.3848 0.327037 6.28984 0.873438 7.02344C0.830238 7.34344 0.8 7.668 0.8 8C0.8 11.9768 4.0232 15.2 8 15.2C8.332 15.2 8.65656 15.1698 8.97656 15.1266C9.71016 15.673 10.6152 16 11.6 16C14.0304 16 16 14.0304 16 11.6C16 10.6152 15.673 9.71016 15.1266 8.97656C15.1698 8.65656 15.2 8.332 15.2 8C15.2 4.0232 11.9768 0.8 8 0.8C7.668 0.8 7.34344 0.830238 7.02344 0.873438C6.28984 0.327037 5.3848 0 4.4 0ZM4.4 1.6C5.0024 1.6 5.57995 1.79225 6.06875 2.15625L6.59063 2.54688L7.2375 2.45938C7.5367 2.41858 7.7792 2.4 8 2.4C11.088 2.4 13.6 4.912 13.6 8C13.6 8.2208 13.5814 8.4625 13.5406 8.7625L13.4531 9.40938L13.8438 9.93125C14.2078 10.4201 14.4 10.9976 14.4 11.6C14.4 13.144 13.144 14.4 11.6 14.4C10.9976 14.4 10.42 14.2077 9.93125 13.8438L9.40938 13.4531L8.7625 13.5406C8.4625 13.5806 8.2208 13.6 8 13.6C4.912 13.6 2.4 11.088 2.4 8C2.4 7.7792 2.41858 7.5375 2.45938 7.2375L2.54688 6.59063L2.15625 6.06875C1.79225 5.57995 1.6 5.0024 1.6 4.4C1.6 2.856 2.856 1.6 4.4 1.6ZM7.87969 4C4.87169 4 4.65 5.76713 4.65 6.20312C4.65 7.07032 5.14727 7.74391 5.99688 8.07031C6.90008 8.41751 7.99635 8.62571 8.61875 8.79531C9.59235 9.06171 9.46875 9.59816 9.46875 9.67656C9.46875 10.5006 8.34017 10.7128 7.85938 10.6672C7.31538 10.616 6.76423 10.7714 6.19063 9.59062C6.08822 9.37943 5.89998 8.91719 5.33437 8.91719C5.08957 8.91719 4.47813 9.1035 4.47813 9.6875C4.47813 10.8331 5.75721 12 7.98281 12C9.14601 12 11.3156 11.5973 11.3172 9.51094C11.3172 7.69414 9.4847 7.37533 8.1375 7.02813C7.7687 6.93293 6.39375 6.78094 6.39375 6.06094C6.39375 5.84734 6.69271 5.33437 7.77031 5.33437C8.87991 5.33437 9.12155 5.85384 9.26875 6.12344C9.39195 6.33704 9.49319 6.50205 9.61719 6.58125C10.1092 6.89565 10.558 6.65466 10.7172 6.48906C10.8764 6.32346 10.9562 6.14081 10.9562 5.93281C10.9562 5.02801 9.88609 4 7.87969 4Z" fill="white"/>
</svg>
