<svg width="16" height="17" viewBox="0 0 16 17" fill="none" xmlns="http://www.w3.org/2000/svg">
<path d="M14.1957 1.6359C13.7772 1.25204 12.0835 0.0282904 8.30731 0.0118862C8.30731 0.0118862 3.85562 -0.253862 1.68744 1.72776C0.481428 2.92855 0.0563589 4.69036 0.0102274 6.87212C-0.0359041 9.05387 -0.0919211 13.1418 3.8655 14.2507H3.8688L3.8655 15.9436C3.8655 15.9436 3.83914 16.6293 4.29387 16.7671C4.84086 16.9377 5.16378 16.4161 5.6877 15.855C5.97437 15.5467 6.36979 15.0939 6.66964 14.7494C9.37822 14.9758 11.4574 14.4574 11.6947 14.382C12.2417 14.2048 15.3358 13.8111 15.8366 9.72316C16.3573 5.50401 15.5862 2.83997 14.1957 1.6359ZM14.6537 9.41477C14.2286 12.8268 11.721 13.0434 11.2597 13.191C11.062 13.2533 9.23323 13.7061 6.93654 13.5585C6.93654 13.5585 5.22309 15.6155 4.68928 16.1503C4.51464 16.3242 4.32352 16.3078 4.32682 15.9633C4.32682 15.7369 4.34 13.1516 4.34 13.1516C4.3367 13.1516 4.3367 13.1516 4.34 13.1516C0.985579 12.2264 1.18329 8.74548 1.21953 6.92461C1.25578 5.10375 1.60176 3.61096 2.62325 2.60703C4.45862 0.950206 8.23811 1.19627 8.23811 1.19627C11.4311 1.20939 12.96 2.1674 13.3159 2.48892C14.4922 3.49285 15.0919 5.89443 14.6537 9.41477ZM10.0735 6.76385C10.0867 7.046 9.6616 7.06569 9.64842 6.78354C9.61217 6.06175 9.27278 5.7107 8.57421 5.67133C8.29083 5.65493 8.31719 5.2317 8.59728 5.2481C9.51661 5.29732 10.0274 5.82225 10.0735 6.76385ZM10.7424 7.13458C10.7753 5.74351 9.90214 4.65427 8.2447 4.53288C7.96462 4.5132 7.99427 4.08997 8.27436 4.10965C10.1855 4.24745 11.2037 5.5565 11.1675 7.14443C11.1642 7.42658 10.7358 7.41346 10.7424 7.13458ZM12.2911 7.57422C12.2944 7.85637 11.866 7.85965 11.866 7.5775C11.8463 4.90361 10.057 3.44692 7.88554 3.43052C7.60545 3.42724 7.60545 3.00729 7.88554 3.00729C10.314 3.02369 12.268 4.69364 12.2911 7.57422ZM11.9187 10.7927V10.7993C11.5629 11.4226 10.8973 12.1116 10.2119 11.8918L10.2053 11.882C9.51002 11.6884 7.87235 10.8485 6.83769 10.0283C6.30388 9.60834 5.81621 9.11293 5.44057 8.63721C5.10117 8.21398 4.75848 7.71201 4.42567 7.10834C3.72381 5.84522 3.56894 5.28091 3.56894 5.28091C3.34817 4.5985 4.03685 3.93577 4.66621 3.58144H4.6728C4.97596 3.42396 5.26592 3.47645 5.46034 3.70939C5.46034 3.70939 5.86893 4.19495 6.04357 4.43445C6.20833 4.65755 6.4291 5.01516 6.54443 5.21529C6.74543 5.57291 6.62021 5.93708 6.42251 6.088L6.02709 6.40296C5.82609 6.56372 5.85245 6.86227 5.85245 6.86227C5.85245 6.86227 6.43898 9.07028 8.63023 9.62802C8.63023 9.62802 8.93009 9.65427 9.09155 9.45414L9.40788 9.06044C9.55945 8.86359 9.92521 8.73891 10.2844 8.93904C10.7688 9.21135 11.3849 9.63458 11.7935 10.0184C12.0242 10.2054 12.0769 10.4909 11.9187 10.7927Z" fill="white"/>
</svg>
