<svg width="17" height="17" viewBox="0 0 17 17" fill="none" xmlns="http://www.w3.org/2000/svg">
<path d="M8.80918 0.199951C4.40438 0.199951 0.818592 3.78265 0.816992 8.18745C0.816192 9.59545 1.18498 10.97 1.88418 12.1812L0.799805 16.2L4.98574 15.2109C6.15294 15.8477 7.46689 16.182 8.80449 16.1828H8.80762C13.2116 16.1828 16.7958 12.5993 16.7982 8.19526C16.7998 6.06006 15.9695 4.05254 14.4607 2.54214C12.9519 1.03254 10.9468 0.200751 8.80918 0.199951ZM8.80762 1.79995C10.5164 1.80075 12.1223 2.46699 13.3295 3.67339C14.5367 4.88139 15.1998 6.4865 15.1982 8.1937C15.1966 11.7169 12.3309 14.5828 8.80606 14.5828C7.73965 14.582 6.68333 14.3142 5.75293 13.8062L5.21387 13.5125L3.04355 14.025L3.42793 12.5968L3.60137 11.9562L3.27012 11.3812C2.71172 10.4148 2.41619 9.30985 2.41699 8.18745C2.41859 4.66585 5.28522 1.79995 8.80762 1.79995ZM5.98106 4.49995C5.84746 4.49995 5.63144 4.54995 5.44824 4.74995C5.26504 4.94915 4.74824 5.43161 4.74824 6.41401C4.74824 7.39641 5.46387 8.34604 5.56387 8.47964C5.66307 8.61244 6.94521 10.6921 8.97481 11.4921C10.6612 12.1569 11.0037 12.0257 11.3701 11.9921C11.7365 11.9593 12.5522 11.5101 12.7186 11.0437C12.885 10.5773 12.8853 10.1761 12.8357 10.0937C12.7861 10.0105 12.6529 9.96089 12.4529 9.86089C12.2537 9.76089 11.2721 9.27885 11.0889 9.21245C10.9057 9.14605 10.7717 9.11245 10.6389 9.31245C10.5061 9.51245 10.1244 9.9609 10.0076 10.0937C9.89082 10.2273 9.77481 10.2453 9.57481 10.1453C9.37481 10.0445 8.73176 9.83308 7.96856 9.15308C7.37496 8.62428 6.97442 7.97183 6.85762 7.77183C6.74162 7.57263 6.84668 7.46321 6.94668 7.36401C7.03628 7.27441 7.14512 7.13081 7.24512 7.01401C7.34432 6.89721 7.37872 6.814 7.44512 6.6812C7.51152 6.5484 7.47753 6.4312 7.42793 6.3312C7.37833 6.2312 6.98991 5.24515 6.81231 4.84995C6.66271 4.51795 6.50471 4.51024 6.36231 4.50464C6.2463 4.49984 6.11386 4.49995 5.98106 4.49995Z" fill="white"/>
</svg>
