<svg width="35" height="24" viewBox="0 0 35 24" fill="none" xmlns="http://www.w3.org/2000/svg">
<rect x="0.5" y="4.5" width="23" height="19" rx="2.5" stroke="white"/>
<path d="M4.46954 19.5L7.50063 14.25L10.5317 19.5H4.46954Z" stroke="white"/>
<path d="M11.8498 19.5L16 12.0296L20.1502 19.5H11.8498Z" stroke="white"/>
<rect width="16" height="16" transform="translate(19)" fill="#333333"/>
<path d="M27.4341 2.09463L27.4341 2.09463L22.2837 7.96152L22.0959 7.79659L22.2837 7.96153C20.9229 9.51165 20.8993 12.0295 22.2504 13.5819L22.0618 13.7461L22.2504 13.5819C23.5962 15.1284 25.7851 15.1461 27.1473 13.5944L31.372 8.78196L31.372 8.78195C31.4398 8.70477 31.4379 8.57183 31.3695 8.49733L31.5536 8.32821L31.3695 8.49733L30.8078 7.88582C30.7536 7.82688 30.6782 7.82709 30.6242 7.88862L30.6242 7.88863L26.3995 12.7011L26.3995 12.7011C25.4631 13.7678 23.936 13.7663 23.0016 12.6925C22.0801 11.6337 22.0972 9.91918 23.0315 8.85486L23.0315 8.85486L28.1819 2.98799C28.1819 2.98799 28.1819 2.98799 28.1819 2.98799C28.7529 2.33757 29.6849 2.33794 30.2556 2.98798L30.069 3.15184L30.2556 2.98799C30.8203 3.63118 30.8203 4.66546 30.2559 5.30842L30.2558 5.30851L25.7663 10.4176C25.6678 10.5299 25.5305 10.5963 25.3822 10.5945C25.2341 10.5928 25.0987 10.5233 25.0025 10.4098L25.0025 10.4098C24.8032 10.1746 24.8253 9.80634 25.0213 9.58308L25.0214 9.58295L28.5504 5.56832C28.6182 5.49123 28.6164 5.35828 28.548 5.28369L27.9867 4.67176L28.1709 4.50277L27.9867 4.67176C27.9326 4.6128 27.8572 4.61294 27.8031 4.67443L24.2739 8.6893L27.4341 2.09463ZM27.4341 2.09463C28.4227 0.968505 30.0148 0.96841 31.0034 2.09463L31.1913 1.9297M27.4341 2.09463L31.1913 1.9297M31.1913 1.9297L31.0034 2.09463C31.9983 3.22789 31.9995 5.06731 31.0035 6.20191C31.0034 6.20194 31.0034 6.20196 31.0034 6.20199L26.5139 11.3111L26.5138 11.3112M31.1913 1.9297L26.5138 11.3112M26.5138 11.3112C25.8819 12.031 24.8634 12.0219 24.2411 11.2873L24.0503 11.4489M26.5138 11.3112L24.0503 11.4489M24.0503 11.4489L24.2411 11.2873C23.6283 10.564 23.6465 9.40407 24.2738 8.68943L24.0503 11.4489Z" fill="white" stroke="#333333" stroke-width="0.5"/>
</svg>
