<svg width="22" height="20" viewBox="0 0 22 20" fill="none" xmlns="http://www.w3.org/2000/svg">
<path d="M4.7493 4.29577H18.3995M18.3995 4.29577H21.3337V19H0.666992V0.999992H18.3995V4.29577Z" stroke="#ACDA53"/>
<circle cx="16.6673" cy="11" r="0.833333" stroke="#ACDA53"/>
<mask id="path-3-inside-1" fill="white">
<path d="M14.0007 11C14.0007 11.7072 14.2816 12.3855 14.7817 12.8856C15.2818 13.3857 15.9601 13.6666 16.6673 13.6666C17.3746 13.6666 18.0528 13.3857 18.5529 12.8856C19.053 12.3855 19.334 11.7072 19.334 11L18.682 11C18.682 11.5343 18.4698 12.0467 18.0919 12.4246C17.7141 12.8024 17.2017 13.0147 16.6673 13.0147C16.133 13.0147 15.6205 12.8024 15.2427 12.4246C14.8649 12.0467 14.6526 11.5343 14.6526 11H14.0007Z"/>
</mask>
<path d="M14.0007 11C14.0007 11.7072 14.2816 12.3855 14.7817 12.8856C15.2818 13.3857 15.9601 13.6666 16.6673 13.6666C17.3746 13.6666 18.0528 13.3857 18.5529 12.8856C19.053 12.3855 19.334 11.7072 19.334 11L18.682 11C18.682 11.5343 18.4698 12.0467 18.0919 12.4246C17.7141 12.8024 17.2017 13.0147 16.6673 13.0147C16.133 13.0147 15.6205 12.8024 15.2427 12.4246C14.8649 12.0467 14.6526 11.5343 14.6526 11H14.0007Z" stroke="#ACDA53" stroke-width="2" mask="url(#path-3-inside-1)"/>
<path d="M5.33398 16.3332V7.66656" stroke="#ACDA53"/>
</svg>
