<svg width="27" height="27" viewBox="0 0 27 27" fill="none" xmlns="http://www.w3.org/2000/svg">
<circle cx="13.3337" cy="13.8957" r="6.48413" stroke="#ACDA53"/>
<path d="M12.0618 24.9813C14.517 25.2546 16.9945 24.7251 19.1234 23.4721C21.2523 22.219 22.9179 20.31 23.8706 18.0308C24.8234 15.7517 25.0121 13.2252 24.4083 10.8298C23.8046 8.43446 22.441 6.29918 20.5218 4.74389C18.6026 3.18859 16.2312 2.29699 13.7627 2.20267C11.2942 2.10834 8.86166 2.81637 6.82938 4.22068C4.7971 5.62498 3.27454 7.64997 2.48978 9.99227C1.70503 12.3346 1.70033 14.8681 2.47639 17.2133" stroke="#ACDA53"/>
<path d="M13.4677 24.6895C13.4677 24.8209 13.3878 25.0012 13.1325 25.1714C12.8807 25.3392 12.504 25.4593 12.063 25.4593C11.6219 25.4593 11.2453 25.3392 10.9934 25.1714C10.7381 25.0012 10.6582 24.8209 10.6582 24.6895C10.6582 24.558 10.7381 24.3778 10.9934 24.2076C11.2453 24.0397 11.6219 23.9196 12.063 23.9196C12.504 23.9196 12.8807 24.0397 13.1325 24.2076C13.3878 24.3778 13.4677 24.558 13.4677 24.6895Z" fill="#5F8470" stroke="#ACDA53"/>
<path d="M2.32758 14.9249C2.32758 15.8793 2.47197 16.6719 2.57372 17.2304C2.59368 17.3399 2.612 17.4405 2.62727 17.5315C2.64638 17.6454 2.65984 17.7384 2.66743 17.8153C2.56805 17.79 2.43636 17.7433 2.27916 17.6651C2.02213 17.5372 1.73443 17.3432 1.46628 17.0872C0.930377 16.5754 0.5 15.845 0.5 14.9249C0.5 13.951 0.855303 12.9914 1.3082 12.2737C1.53388 11.9161 1.77374 11.6347 1.98693 11.4492C2.09345 11.3565 2.18502 11.295 2.25684 11.2587C2.26887 11.2526 2.27977 11.2475 2.28956 11.2432C2.3408 11.3864 2.375 11.6379 2.38492 12.0199C2.39457 12.3916 2.38096 12.8336 2.36403 13.3329C2.36304 13.3622 2.36203 13.3917 2.36102 13.4213C2.34502 13.8913 2.32758 14.4035 2.32758 14.9249Z" fill="#5F8470" stroke="#ACDA53"/>
<path d="M24.3394 14.9249C24.3394 15.8793 24.195 16.6719 24.0933 17.2304C24.0733 17.3399 24.055 17.4405 24.0397 17.5315C24.0206 17.6454 24.0072 17.7384 23.9996 17.8153C24.0989 17.79 24.2306 17.7433 24.3878 17.6651C24.6449 17.5372 24.9326 17.3432 25.2007 17.0872C25.7366 16.5754 26.167 15.845 26.167 14.9249C26.167 13.951 25.8117 12.9914 25.3588 12.2737C25.1331 11.9161 24.8933 11.6347 24.6801 11.4492C24.5735 11.3565 24.482 11.295 24.4101 11.2587C24.3981 11.2526 24.3872 11.2475 24.3774 11.2432C24.3262 11.3864 24.292 11.6379 24.2821 12.0199C24.2724 12.3916 24.286 12.8336 24.303 13.3329C24.304 13.3622 24.305 13.3917 24.306 13.4213C24.322 13.8913 24.3394 14.4035 24.3394 14.9249Z" fill="#5F8470" stroke="#ACDA53"/>
<mask id="path-6-inside-1" fill="white">
<path d="M11.5898 15.7857C11.0115 15.7857 10.5243 16.2719 10.7456 16.8062C10.8796 17.1297 11.0761 17.4237 11.3237 17.6713C11.5713 17.919 11.8653 18.1154 12.1888 18.2494C12.5124 18.3834 12.8591 18.4524 13.2093 18.4524C13.5595 18.4524 13.9063 18.3834 14.2298 18.2494C14.5533 18.1154 14.8473 17.919 15.0949 17.6713C15.3426 17.4237 15.539 17.1297 15.673 16.8062C15.8943 16.2719 15.4071 15.7857 14.8288 15.7857L13.2093 15.7857H11.5898Z"/>
</mask>
<path d="M11.5898 15.7857C11.0115 15.7857 10.5243 16.2719 10.7456 16.8062C10.8796 17.1297 11.0761 17.4237 11.3237 17.6713C11.5713 17.919 11.8653 18.1154 12.1888 18.2494C12.5124 18.3834 12.8591 18.4524 13.2093 18.4524C13.5595 18.4524 13.9063 18.3834 14.2298 18.2494C14.5533 18.1154 14.8473 17.919 15.0949 17.6713C15.3426 17.4237 15.539 17.1297 15.673 16.8062C15.8943 16.2719 15.4071 15.7857 14.8288 15.7857L13.2093 15.7857H11.5898Z" stroke="#ACDA53" stroke-width="2" mask="url(#path-6-inside-1)"/>
</svg>
