<?xml version="1.0" encoding="utf-8"?><svg viewBox="0 0 24 24" xmlns="http://www.w3.org/2000/svg" xmlns:xlink="http://www.w3.org/1999/xlink"><style>:root>svg{display:none}:root>svg:target{display:block}</style><svg fill="none" viewBox="0 0 16 16" id="account" xmlns="http://www.w3.org/2000/svg"><path d="M13.352 8.685c.03-.218.045-.444.045-.685 0-.233-.015-.467-.052-.685l1.522-1.153a.351.351 0 00.09-.444l-1.44-2.421c-.09-.16-.277-.212-.442-.16l-1.792.7a5.336 5.336 0 00-1.214-.686l-.27-1.852A.36.36 0 009.44 1H6.561a.352.352 0 00-.353.299l-.27 1.852a5.45 5.45 0 00-1.214.685l-1.791-.7a.362.362 0 00-.443.16L1.058 5.719c-.09.153-.06.342.09.444L2.67 7.316c-.037.218-.067.459-.067.685 0 .226.015.467.052.685L1.133 9.837a.351.351 0 00-.09.445l1.44 2.421c.09.16.277.212.442.16l1.792-.7c.374.278.772.511 1.214.686l.27 1.852c.037.175.18.299.36.299h2.878c.18 0 .33-.124.353-.299l.27-1.852a5.18 5.18 0 001.214-.685l1.792.7c.164.058.352 0 .442-.16l1.439-2.422a.332.332 0 00-.09-.444l-1.507-1.153zM8 10.625c-1.484 0-2.699-1.181-2.699-2.625S6.516 5.375 8 5.375c1.484 0 2.699 1.181 2.699 2.625S9.484 10.625 8 10.625z" fill="#333"/><path fill-rule="evenodd" clip-rule="evenodd" d="M5.716 1.215A.852.852 0 016.56.5h2.878a.86.86 0 01.853.715l.002.012.23 1.575c.294.135.568.294.828.47l1.558-.608.017-.005c.341-.106.793-.014 1.023.387l1.442 2.426a.851.851 0 01-.224 1.09l-1.29.976a5.725 5.725 0 01.002.92l1.278.979a.831.831 0 01.227 1.09l-.006.01-1.437 2.417a.863.863 0 01-1.041.38l-.008-.002-1.546-.604c-.26.178-.537.336-.831.47l-.23 1.572a.847.847 0 01-.847.73H6.561a.865.865 0 01-.85-.694l-.003-.016-.231-1.592a5.799 5.799 0 01-.83-.47l-1.557.608-.017.005c-.341.106-.794.014-1.023-.387L.608 10.528a.851.851 0 01.224-1.09l1.29-.977A5.172 5.172 0 012.103 8c0-.156.013-.314.03-.465L.856 6.567a.826.826 0 01-.228-1.103h.001l1.43-2.418a.863.863 0 011.041-.38l.008.002 1.549.605c.257-.174.533-.334.828-.47l.232-1.588zm.968.285l-.292 2.01-.27.106a4.953 4.953 0 00-1.102.623l-.222.163-1.934-.755-1.302 2.201L3.214 7.1l-.051.3c-.035.206-.06.415-.06.601 0 .206.013.418.045.601l.051.3-1.652 1.25 1.31 2.203 1.935-.757.222.165c.346.255.706.466 1.1.622l.27.107.293 2.009h2.639l.292-2.01.27-.106a4.675 4.675 0 001.097-.62l.223-.168 1.938.758 1.31-2.203-1.629-1.245.04-.288c.027-.195.04-.398.04-.618 0-.213-.014-.417-.045-.601l-.051-.3 1.652-1.25-1.31-2.202-1.935.756-.222-.164a4.834 4.834 0 00-1.101-.623l-.27-.107L9.324 1.5H6.684zM8 5.875C6.779 5.875 5.8 6.845 5.8 8S6.78 10.125 8 10.125c1.221 0 2.199-.97 2.199-2.125s-.978-2.125-2.2-2.125zM4.8 8c0-1.733 1.452-3.125 3.199-3.125 1.747 0 3.199 1.392 3.199 3.125s-1.452 3.125-3.2 3.125c-1.746 0-3.198-1.392-3.198-3.125z" fill="#828282"/></svg><svg fill="none" viewBox="0 0 8 6" id="active" xmlns="http://www.w3.org/2000/svg"><path d="M2.545 4.746L.636 2.866 0 3.493 2.545 6 8 .627 7.364 0 2.545 4.746z" fill="#fff"/></svg><svg fill="none" viewBox="0 0 17 9" id="arrow-left" xmlns="http://www.w3.org/2000/svg"><path fill-rule="evenodd" clip-rule="evenodd" d="M.02 4.5L4.878.26l.802.953-3.047 2.66H16.98v1.254H2.632l3.047 2.66-.802.953L.021 4.5z" fill="#E0E0E0"/></svg><svg fill="none" viewBox="0 0 17 9" id="arrow-right" xmlns="http://www.w3.org/2000/svg"><path fill-rule="evenodd" clip-rule="evenodd" d="M16.98 4.5L12.123.26l-.802.953 3.047 2.66H.02v1.254h14.348l-3.047 2.66.802.953L16.98 4.5z" fill="#E0E0E0"/></svg><svg fill="none" viewBox="0 0 14 15" id="canceled" xmlns="http://www.w3.org/2000/svg"><path d="M7 .027c-3.867 0-7 3.19-7 7.127s3.133 7.127 7 7.127 7-3.19 7-7.127S10.867.027 7 .027zm3.432 8.998a.35.35 0 010 .488l-1.117 1.135a.335.335 0 01-.48 0L7 8.763l-1.838 1.885a.335.335 0 01-.48 0L3.569 9.51a.35.35 0 010-.488l1.851-1.868-1.851-1.87a.35.35 0 010-.49l1.117-1.137a.335.335 0 01.48 0L7 5.545l1.838-1.886a.335.335 0 01.48 0l1.117 1.138a.35.35 0 010 .489L8.581 7.154l1.851 1.87z" fill="#EB5757"/></svg><svg fill="none" viewBox="0 0 15 19" id="cart" xmlns="http://www.w3.org/2000/svg"><path fill-rule="evenodd" clip-rule="evenodd" d="M.5 4.563h14v14H.5v-14zm1 1v12h12v-12h-12z" fill="#fff"/><path fill-rule="evenodd" clip-rule="evenodd" d="M5.56 2.906C5.05 3.907 4.75 5.442 4.75 7.5h-1c0-2.13.308-3.845.917-5.047C5.287 1.231 6.25.5 7.5.5c1.251 0 2.213.73 2.833 1.953.609 1.202.917 2.917.917 5.047h-1c0-2.058-.301-3.593-.81-4.594C8.945 1.926 8.28 1.5 7.5 1.5s-1.444.425-1.94 1.406z" fill="#fff"/></svg><svg fill="none" viewBox="0 0 19 19" id="close" xmlns="http://www.w3.org/2000/svg"><path d="M17.678 0l.707.707L.707 18.385 0 17.678 17.678 0z" fill="#828282"/><path d="M0 .707L.707 0l17.678 17.678-.707.707L0 .707z" fill="#828282"/></svg><svg fill="none" viewBox="0 0 14 14" id="comment" xmlns="http://www.w3.org/2000/svg"><path fill-rule="evenodd" clip-rule="evenodd" d="M2.386 10.2H12.6c.218 0 .4-.182.4-.4V1.4c0-.218-.182-.4-.4-.4H1.4c-.218 0-.4.182-.4.4v10.186L2.386 10.2zM0 14V1.4C0 .63.63 0 1.4 0h11.2c.77 0 1.4.63 1.4 1.4v8.4c0 .77-.63 1.4-1.4 1.4H2.8L0 14z" fill="#E0E0E0"/></svg><svg fill="none" viewBox="0 0 14 14" id="comment-full" xmlns="http://www.w3.org/2000/svg"><path d="M12.6 0H1.4C.63 0 0 .63 0 1.4V14l2.8-2.8h9.8c.77 0 1.4-.63 1.4-1.4V1.4c0-.77-.63-1.4-1.4-1.4z" fill="#fff"/></svg><svg fill="none" viewBox="0 0 13 14" id="copy" xmlns="http://www.w3.org/2000/svg"><path d="M9.286 12.25v1.094c0 .362-.312.656-.697.656H.696C.312 14 0 13.706 0 13.344V3.28c0-.362.312-.656.696-.656h2.09v8.094c0 .844.729 1.531 1.625 1.531h4.875zm0-9.406V0H4.41c-.385 0-.697.294-.697.656V10.72c0 .362.312.656.697.656h7.893c.384 0 .696-.294.696-.656V3.5H9.982c-.383 0-.696-.295-.696-.656zm3.51-.849L10.883.192A.719.719 0 0010.39 0h-.176v2.625H13v-.166a.638.638 0 00-.204-.464z" fill="#fff"/></svg><svg fill="none" viewBox="0 0 12 14" id="delete" xmlns="http://www.w3.org/2000/svg"><path d="M.857 12.688c0 .348.136.681.377.928.24.246.568.384.909.384h7.714c.341 0 .668-.138.91-.384.24-.247.376-.58.376-.928V3.5H.857v9.188zm7.286-7c0-.117.045-.228.125-.31a.424.424 0 01.606 0c.08.082.126.193.126.31v6.125a.442.442 0 01-.126.309.424.424 0 01-.606 0 .442.442 0 01-.125-.31V5.689zm-2.572 0c0-.117.046-.228.126-.31a.424.424 0 01.606 0c.08.082.126.193.126.31v6.125a.442.442 0 01-.126.309.424.424 0 01-.606 0 .442.442 0 01-.126-.31V5.689zM3 5.688c0-.117.045-.228.126-.31a.424.424 0 01.606 0c.08.082.125.193.125.31v6.125a.442.442 0 01-.125.309.424.424 0 01-.606 0 .442.442 0 01-.126-.31V5.689zM11.571.875H8.357L8.105.364a.652.652 0 00-.237-.266A.633.633 0 007.53 0H4.468a.626.626 0 00-.338.098.644.644 0 00-.235.266l-.252.511H.429a.424.424 0 00-.303.128.442.442 0 00-.126.31v.875c0 .116.045.227.126.309.08.082.189.128.303.128H11.57a.424.424 0 00.303-.128.442.442 0 00.126-.31v-.874a.442.442 0 00-.126-.31.424.424 0 00-.303-.128z" fill="#828282"/></svg><svg fill="none" viewBox="0 0 14 15" id="delivered" xmlns="http://www.w3.org/2000/svg"><path d="M14 7.186c0 3.935-3.134 7.126-7 7.126s-7-3.19-7-7.126C0 3.25 3.134.059 7 .059s7 3.19 7 7.127zm-7.81 3.773l5.194-5.287a.466.466 0 000-.65l-.639-.65a.446.446 0 00-.638 0L5.87 8.682 3.893 6.67a.446.446 0 00-.638 0l-.639.65a.466.466 0 000 .65l2.936 2.989c.176.18.462.18.638 0z" fill="#ACDA53"/></svg><svg fill="none" viewBox="0 0 8 4" id="drop" xmlns="http://www.w3.org/2000/svg"><path d="M7.06 4L4 1.528.94 4 0 3.239 4 0l4 3.239L7.06 4z" fill="#fff"/></svg><svg fill="none" viewBox="0 0 12 13" id="edit" xmlns="http://www.w3.org/2000/svg"><path fill-rule="evenodd" clip-rule="evenodd" d="M3.3 12.65l-2.676.306c-.358.04-.66-.273-.62-.644L.3 9.538 6.814 2.79l3 3.109-6.515 6.75zm5.125-6.751l-5.596 5.798-1.776.203.206-1.914L6.814 4.23l1.61 1.669zm1.92-.55l1.325-1.373c.44-.455.44-1.194 0-1.649L10.262.867a1.098 1.098 0 00-1.592 0L7.345 2.241l3 3.109zm-1.61-3.108l.655-.68a.103.103 0 01.076-.035c.022 0 .049.007.076.036l1.409 1.46c.03.03.049.075.049.13 0 .055-.02.1-.05.13l-.605.628-1.61-1.67z" fill="#E0E0E0"/></svg><svg fill="none" viewBox="0 0 8 16" id="fb" xmlns="http://www.w3.org/2000/svg"><path d="M7.476 9l.415-2.896H5.297V4.225c0-.792.362-1.564 1.524-1.564H8V.196S6.93 0 5.907 0C3.77 0 2.374 1.387 2.374 3.897v2.207H0V9h2.374v7h2.923V9h2.179z" fill="#fff"/></svg><svg fill="none" viewBox="0 0 18 20" id="fixed" xmlns="http://www.w3.org/2000/svg"><path fill-rule="evenodd" clip-rule="evenodd" d="M10.239.328l7.688 5.383-.22.395c-.347.62-.686 1.095-1.146 1.463-.421.337-.912.558-1.53.744l-2.873 4.102c.354 1.327.435 2.33.274 3.246-.17.962-.6 1.78-1.146 2.72l-.274.47-4.95-3.465-2.736 3.907a.5.5 0 11-.819-.574l2.736-3.907-4.911-3.438.28-.409c.612-.892 1.188-1.602 2.02-2.112.786-.483 1.759-.76 3.123-.913l2.894-4.134c.04-.678.118-1.232.304-1.73.204-.546.524-.989.99-1.453l.296-.295zm.126 1.309a2.609 2.609 0 00-.475.79c-.145.385-.215.857-.25 1.572l-.006.144L6.31 8.888l-.228.023c-1.417.14-2.282.398-2.929.794-.54.331-.961.78-1.431 1.421l8.967 6.28c.39-.706.645-1.282.757-1.918.135-.765.07-1.667-.314-3.032l-.065-.228 3.346-4.779.172-.048c.64-.18 1.04-.364 1.351-.613.235-.188.442-.43.667-.783l-6.239-4.368z" fill="#ACDA53"/></svg><svg fill="none" viewBox="0 0 14 12" id="form-comments" xmlns="http://www.w3.org/2000/svg"><path d="M7 0C3.136 0 .003 2.494.003 5.571c0 1.275.544 2.443 1.446 3.383C1.041 10.01.193 10.904.18 10.915a.633.633 0 00-.126.697.659.659 0 00.604.388c1.681 0 3.007-.688 3.803-1.24.79.244 1.643.383 2.54.383C10.867 11.143 14 8.649 14 5.57 14 2.494 10.867 0 7 0zm0 9.857a7.24 7.24 0 01-2.143-.324l-.62-.193-.533.37c-.391.27-.927.573-1.572.777.2-.325.393-.689.544-1.077l.29-.753-.564-.584c-.495-.517-1.088-1.371-1.088-2.502 0-2.362 2.551-4.285 5.687-4.285s5.687 1.923 5.687 4.285c0 2.363-2.551 4.286-5.687 4.286z" fill="#BDBDBD"/></svg><svg fill="none" viewBox="0 0 15 16" id="forum-fire" xmlns="http://www.w3.org/2000/svg"><path d="M15 8.364c0-.91-.162-1.782-.459-2.589-.203 2.377-1.47 3.599-2.795 3.03-1.24-.533-.404-2.61-.343-3.602.105-1.68-.005-3.604-3.057-5.203 1.268 2.426.147 3.934-1.03 4.026-1.305.102-2.5-1.122-2.058-3.107-1.429 1.053-1.47 2.824-1.03 3.97.46 1.195-.018 2.188-1.14 2.298-1.252.124-1.948-1.341-1.307-3.676A7.5 7.5 0 1015 8.364z" fill="#F4900C"/><path d="M12.086 10.57c.065 1.36-1.13 1.893-1.773 1.636-.93-.372-.68-1.011-.92-2.335-.238-1.323-1.157-2.242-2.518-2.647.993 2.794-.55 3.824-1.358 4.008-.826.188-1.656 0-1.751-1.768a5.278 5.278 0 00-1.536 4.234 7.473 7.473 0 005.27 2.166 7.473 7.473 0 005.27-2.166 5.267 5.267 0 00-.684-3.128z" fill="#FFCC4D"/></svg><svg fill="none" viewBox="0 0 18 16" id="home" xmlns="http://www.w3.org/2000/svg"><path fill-rule="evenodd" clip-rule="evenodd" d="M8.98.886l2.52 1.68V1h4v4.76l2.312 1.85-.624.78L15.5 7.04v8.46h-13V9.205l.078-2.164L.804 8.397l-.608-.794L8.98.886zM3.607 6.254L3.5 9.224V14.5h11V6.234l-2.8-2.333-2.68-1.787-5.413 4.14zM12.5 3.266l2 1.666V2h-2v1.266z" fill="#828282"/></svg><svg fill="none" viewBox="0 0 8 8" id="info" xmlns="http://www.w3.org/2000/svg"><path d="M2.667 0v1.067H6.18L0 7.248.752 8l6.181-6.181v3.514H8V0H2.667z" fill="#E0E0E0"/></svg><svg fill="none" viewBox="0 0 18 18" id="inst" xmlns="http://www.w3.org/2000/svg"><path d="M9.002 4.385A4.607 4.607 0 004.388 9a4.607 4.607 0 004.614 4.615A4.607 4.607 0 0013.616 9a4.607 4.607 0 00-4.614-4.615zm0 7.615c-1.65 0-3-1.345-3-3s1.346-3 3-3 3 1.345 3 3-1.35 3-3 3zm5.879-7.804c0 .599-.482 1.077-1.076 1.077a1.076 1.076 0 111.076-1.076zm3.056 1.093c-.069-1.442-.398-2.72-1.454-3.772C15.431.465 14.154.136 12.713.063c-1.486-.084-5.94-.084-7.425 0-1.438.069-2.715.398-3.771 1.45C.46 2.566.136 3.843.063 5.285c-.084 1.486-.084 5.94 0 7.426.069 1.442.398 2.72 1.454 3.772 1.056 1.052 2.329 1.381 3.77 1.454 1.486.084 5.94.084 7.425 0 1.442-.069 2.719-.398 3.771-1.454 1.052-1.053 1.381-2.33 1.454-3.772.084-1.486.084-5.936 0-7.422zm-1.92 9.017a3.037 3.037 0 01-1.71 1.71c-1.185.47-3.996.362-5.305.362-1.31 0-4.124.105-5.305-.361a3.037 3.037 0 01-1.71-1.711c-.47-1.185-.362-3.997-.362-5.306 0-1.31-.104-4.125.362-5.306a3.037 3.037 0 011.71-1.71c1.185-.47 3.996-.362 5.305-.362 1.31 0 4.124-.105 5.305.361.787.313 1.393.92 1.71 1.711.47 1.185.362 3.997.362 5.306 0 1.31.108 4.125-.362 5.306z" fill="#fff"/></svg><svg fill="none" viewBox="0 0 16 14" id="like-down" xmlns="http://www.w3.org/2000/svg"><path fill-rule="evenodd" clip-rule="evenodd" d="M6.044 9.1l-.691 3.199-.022.224c0 .287.124.553.32.742l.77.735 4.786-4.613c.27-.252.43-.602.43-.987v-7c0-.77-.655-1.4-1.455-1.4H3.636c-.603 0-1.12.35-1.338.854L.102 5.789A1.338 1.338 0 000 6.3v1.4c0 .77.655 1.4 1.455 1.4h4.589zm-5.02-2.923A.331.331 0 001 6.3v1.4c0 .182.17.4.455.4h5.828l-.94 4.354-.008.078a.057.057 0 00.009.012l.074.07 4.1-3.952.006-.005a.344.344 0 00.112-.257v-7c0-.182-.17-.4-.454-.4H3.636a.448.448 0 00-.42.251l-.004.01-2.188 4.916zM13.09 0H16v8.4h-2.91V0zm1 7.4H15V1h-.91v6.4z" fill="#E0E0E0"/></svg><svg viewBox="0 0 24 24" id="like-down-full" xmlns="http://www.w3.org/2000/svg"><path d="M24 24H0V0h24v24z" fill="none"/><path d="M22 4h-2c-.55 0-1 .45-1 1v9c0 .55.45 1 1 1h2V4zM2.17 11.12c-.11.25-.17.52-.17.8V13c0 1.1.9 2 2 2h5.5l-.92 4.65c-.05.22-.02.46.08.66.23.45.52.86.88 1.22L10 22l6.41-6.41c.38-.38.59-.89.59-1.42V6.34C17 5.05 15.95 4 14.66 4h-8.1c-.71 0-1.36.37-1.72.97l-2.67 6.15z"/></svg><svg fill="none" viewBox="0 0 16 14" id="like-up" xmlns="http://www.w3.org/2000/svg"><path fill-rule="evenodd" clip-rule="evenodd" d="M4.793 4.613c-.27.252-.43.602-.43.987v7c0 .77.655 1.4 1.455 1.4h6.546c.603 0 1.12-.35 1.338-.854l2.196-4.935c.066-.161.102-.329.102-.511V6.3c0-.77-.655-1.4-1.454-1.4h-4.59l.691-3.199.022-.224c0-.287-.123-.553-.32-.742L9.58 0 4.792 4.613zm4.789-3.228l-4.1 3.953-.006.005a.344.344 0 00-.112.257v7c0 .182.17.4.454.4h6.546c.213 0 .364-.12.42-.251l.004-.01 2.188-4.916A.331.331 0 0015 7.7V6.3c0-.182-.17-.4-.454-.4H8.716l.94-4.354.008-.078a.057.057 0 00-.009-.012l-.074-.07zM2.909 14H0V5.6h2.91V14zm-1-7.4H1V13h.91V6.6z" fill="#E0E0E0"/></svg><svg viewBox="0 0 24 24" id="like-up-full" xmlns="http://www.w3.org/2000/svg"><path d="M24 24H0V0h24v24z" fill="none"/><path d="M2 20h2c.55 0 1-.45 1-1v-9c0-.55-.45-1-1-1H2v11zm19.83-7.12c.11-.25.17-.52.17-.8V11c0-1.1-.9-2-2-2h-5.5l.92-4.65c.05-.22.02-.46-.08-.66a4.8 4.8 0 00-.88-1.22L14 2 7.59 8.41C7.21 8.79 7 9.3 7 9.83v7.84A2.34 2.34 0 009.34 20h8.11c.7 0 1.36-.37 1.72-.97l2.66-6.15z"/></svg><svg fill="none" viewBox="0 0 19 18" id="logout" xmlns="http://www.w3.org/2000/svg"><path fill-rule="evenodd" clip-rule="evenodd" d="M10 .793l8.72 8.72L10 17.65V12.5H5V6h5V.792zm1 2.414V7H6v4.5h5v3.85l6.28-5.862L11 3.208zM.5 2.5h7v1h-6V15h6v1h-7V2.5z" fill="#828282"/></svg><svg fill="none" viewBox="0 0 14 14" id="man" xmlns="http://www.w3.org/2000/svg"><path d="M7 7.875A3.939 3.939 0 007 0a3.939 3.939 0 000 7.875zm3.5.875H8.993a4.765 4.765 0 01-3.986 0H3.5a3.5 3.5 0 00-3.5 3.5v.438C0 13.412.588 14 1.313 14h11.374c.725 0 1.313-.588 1.313-1.313v-.437a3.5 3.5 0 00-3.5-3.5z" fill="#828282"/></svg><svg fill="none" viewBox="0 0 16 14" id="message" xmlns="http://www.w3.org/2000/svg"><path d="M14.5.6h-13C.672.6 0 1.316 0 2.2v9.6c0 .884.672 1.6 1.5 1.6h13c.828 0 1.5-.716 1.5-1.6V2.2c0-.884-.672-1.6-1.5-1.6zm0 1.6v1.36c-.7.609-1.818 1.555-4.206 3.55C9.768 7.55 8.725 8.612 8 8.6c-.725.012-1.768-1.049-2.294-1.49C3.318 5.116 2.2 4.169 1.5 3.56V2.2h13zm-13 9.6V5.613c.716.609 1.732 1.462 3.28 2.755.682.574 1.878 1.84 3.22 1.832 1.335.008 2.516-1.24 3.22-1.832a537.997 537.997 0 003.28-2.755V11.8h-13z" fill="#fff"/></svg><svg fill="none" viewBox="0 0 8 2" id="minus" xmlns="http://www.w3.org/2000/svg"><path d="M8 1.571V.43H0V1.57h8z" fill="#E0E0E0"/></svg><svg fill="none" viewBox="0 0 18 16" id="order" xmlns="http://www.w3.org/2000/svg"><path fill-rule="evenodd" clip-rule="evenodd" d="M1 1h16v14H1V1zM0 0h18v16H0V0zm6 5a1 1 0 11-2 0 1 1 0 012 0zm8 .5H7v-1h7v1zm0 3H7v-1h7v1zm0 3H7v-1h7v1zM5 9a1 1 0 100-2 1 1 0 000 2zm1 2a1 1 0 11-2 0 1 1 0 012 0z" fill="#828282"/></svg><svg fill="none" viewBox="0 0 16 16" id="phone" xmlns="http://www.w3.org/2000/svg"><path fill-rule="evenodd" clip-rule="evenodd" d="M.55.262c.3-.2.655-.262.942-.262h2.883C5.101 0 5.7.599 5.7 1.325c0 .974.15 1.912.441 2.784l.003.008c.144.46.039.977-.317 1.347l-.017.017-1.345 1.145c1.096 2.07 2.965 3.88 4.98 4.937l1.073-1.347.02-.02a1.315 1.315 0 011.353-.32 9.036 9.036 0 002.784.44c.726 0 1.325.6 1.325 1.326v2.875c0 .303-.075.657-.281.95-.22.314-.576.533-1.044.533C6.665 16 0 9.343 0 1.325 0 .841.223.481.55.262zm.481.909A.316.316 0 001 1.325C1 8.79 7.218 15 14.675 15a.292.292 0 00.142-.03.24.24 0 00.083-.077.68.68 0 00.1-.376v-2.875a.332.332 0 00-.325-.325c-1.08 0-2.123-.176-3.096-.491l-.008-.003a.313.313 0 00-.31.065l-1.534 1.926-.359-.171c-2.457-1.172-4.75-3.378-5.977-5.926l-.167-.348L5.12 4.755a.35.35 0 00.07-.335 9.795 9.795 0 01-.49-3.095A.332.332 0 004.375 1H1.492a.727.727 0 00-.387.094.216.216 0 00-.074.077z" fill="#828282"/></svg><svg fill="none" viewBox="0 0 14 20" id="place" xmlns="http://www.w3.org/2000/svg"><path fill-rule="evenodd" clip-rule="evenodd" d="M6.342 19.235C6.749 19.722 7 20 7 20s.251-.278.658-.765C9.401 17.154 14 11.255 14 7c0-3.87-3.13-7-7-7S0 3.13 0 7c0 4.255 4.6 10.154 6.342 12.235zM7 18.463l.317-.386c.644-.793 1.5-1.902 2.354-3.168.856-1.268 1.698-2.677 2.323-4.072C12.624 9.43 13 8.11 13 7c0-3.318-2.682-6-6-6S1 3.682 1 7c0 1.11.376 2.43 1.006 3.837.625 1.395 1.467 2.804 2.323 4.072A45.506 45.506 0 007 18.463zM7 10.5a3.5 3.5 0 010-7 3.5 3.5 0 010 7zM4.5 7a2.5 2.5 0 005 0 2.5 2.5 0 00-5 0z" fill="#828282"/></svg><svg fill="none" viewBox="0 0 8 8" id="plus" xmlns="http://www.w3.org/2000/svg"><path d="M8 4.571H4.571V8H3.43V4.571H0V3.43h3.429V0H4.57v3.429H8V4.57z" fill="#E0E0E0"/></svg><svg fill="none" viewBox="0 0 15 18" id="profile" xmlns="http://www.w3.org/2000/svg"><path fill-rule="evenodd" clip-rule="evenodd" d="M7.5 8.031a3.063 3.063 0 100-6.125 3.063 3.063 0 000 6.125zm0 1a4.062 4.062 0 100-8.125 4.062 4.062 0 000 8.125zM2.55 12.207a7 7 0 0111.95 4.95h-1a6 6 0 10-12 0h-1a7 7 0 012.05-4.95z" fill="#fff"/></svg><svg fill="none" viewBox="0 0 17 16" id="referral" xmlns="http://www.w3.org/2000/svg"><path fill-rule="evenodd" clip-rule="evenodd" d="M.5.5h14.594v3H16.5v12H.5V.5zm13.594 3v-2H1.5v13h14v-10H3.812v-1h10.282z" fill="#828282"/><circle cx="12" cy="9" r="1" fill="#828282"/></svg><svg fill="none" viewBox="0 0 17 14" id="reviews-message" xmlns="http://www.w3.org/2000/svg"><path d="M8.5 0C3.806 0 0 2.91 0 6.5c0 1.549.71 2.97 1.893 4.086-.417 1.572-1.803 2.976-1.82 2.992a.236.236 0 00-.051.27c.02.046.054.084.098.11A.277.277 0 00.266 14c2.2 0 3.85-.992 4.668-1.606A10.68 10.68 0 008.5 13c4.694 0 8.5-2.91 8.5-6.5S13.194 0 8.5 0zm.797 9.451V10c0 .276-.238.5-.531.5h-.532c-.293 0-.53-.224-.53-.5v-.554a2.523 2.523 0 01-1.056-.358.361.361 0 01-.052-.575l.582-.547a.43.43 0 01.469-.064c.105.046.22.07.34.07h1.089c.154 0 .28-.118.28-.263a.268.268 0 00-.203-.254L7.49 7.008c-.738-.198-1.328-.772-1.424-1.49-.135-1.001.631-1.856 1.637-1.97V3c0-.276.238-.5.531-.5h.532c.293 0 .53.224.53.5v.554c.38.042.74.162 1.056.358.207.129.226.41.051.575l-.581.547a.43.43 0 01-.469.064.857.857 0 00-.34-.07H7.924c-.154 0-.28.118-.28.263 0 .117.084.221.203.254l1.663.447c.739.198 1.328.772 1.425 1.49.134 1.001-.632 1.856-1.638 1.97z" fill="#828282"/></svg><svg fill="none" viewBox="0 0 16 17" id="search" xmlns="http://www.w3.org/2000/svg"><path fill-rule="evenodd" clip-rule="evenodd" d="M10.285 10.935a.483.483 0 01.685-.01l4.883 4.77a.488.488 0 01.01.689.483.483 0 01-.686.01l-4.883-4.77a.488.488 0 01-.01-.69z" fill="#fff"/><path fill-rule="evenodd" clip-rule="evenodd" d="M6.347 12.305c2.97 0 5.378-2.418 5.378-5.4s-2.408-5.4-5.378-5.4S.97 3.923.97 6.905s2.407 5.4 5.377 5.4zm0 .973c3.506 0 6.347-2.853 6.347-6.373S9.853.53 6.347.53C2.842.531 0 3.385 0 6.905c0 3.52 2.842 6.373 6.347 6.373z" fill="#fff"/></svg><svg fill="none" viewBox="0 0 14 15" id="sent" xmlns="http://www.w3.org/2000/svg"><path d="M7 .593c3.867 0 7 3.19 7 7.126 0 3.937-3.133 7.127-7 7.127s-7-3.19-7-7.127C0 3.783 3.133.593 7 .593zm-.816 4.126L8.315 6.8H3.161a.682.682 0 00-.677.69v.46c0 .383.302.69.677.69h5.154l-2.13 2.08a.7.7 0 00-.012.986l.31.313c.266.27.695.27.957 0l3.746-3.81a.696.696 0 000-.974L7.44 3.418a.666.666 0 00-.957 0l-.31.313a.703.703 0 00.011.988z" fill="#fff"/></svg><svg fill="none" viewBox="0 0 20 13" id="show-pass" xmlns="http://www.w3.org/2000/svg"><path d="M10 0C5.455 0 1.573 2.695 0 6.5 1.573 10.305 5.455 13 10 13c4.546 0 8.427-2.695 10-6.5C18.427 2.695 14.546 0 10 0zm0 10.833c-2.51 0-4.545-1.941-4.545-4.333 0-2.392 2.036-4.333 4.545-4.333 2.51 0 4.546 1.941 4.546 4.333 0 2.392-2.037 4.333-4.546 4.333zM10 3.9c-1.51 0-2.727 1.161-2.727 2.6S8.49 9.1 10 9.1c1.51 0 2.727-1.161 2.727-2.6S11.51 3.9 10 3.9z" fill="#828282"/></svg><svg fill="none" viewBox="0 0 16 16" id="skype" xmlns="http://www.w3.org/2000/svg"><path d="M4.4 0A4.4 4.4 0 000 4.4c0 .985.327 1.89.873 2.623C.83 7.343.8 7.668.8 8A7.2 7.2 0 008 15.2c.332 0 .657-.03.977-.073A4.374 4.374 0 0011.6 16a4.4 4.4 0 004.4-4.4c0-.985-.327-1.89-.873-2.623.043-.32.073-.645.073-.977A7.2 7.2 0 008 .8c-.332 0-.657.03-.977.073A4.374 4.374 0 004.4 0zm0 1.6c.602 0 1.18.192 1.669.556l.522.39.646-.087c.3-.04.542-.059.763-.059 3.088 0 5.6 2.512 5.6 5.6 0 .22-.019.463-.06.762l-.087.647.39.522c.365.49.557 1.067.557 1.669 0 1.544-1.256 2.8-2.8 2.8-.602 0-1.18-.192-1.669-.556l-.522-.39-.647.087c-.3.04-.541.059-.762.059A5.606 5.606 0 012.4 8c0-.22.019-.463.06-.763l.087-.646-.39-.522A2.777 2.777 0 011.6 4.4c0-1.544 1.256-2.8 2.8-2.8zM7.88 4C4.872 4 4.65 5.767 4.65 6.203c0 .867.497 1.54 1.347 1.867.903.348 2 .556 2.622.725.973.267.85.803.85.882 0 .824-1.129 1.036-1.61.99-.544-.051-1.095.104-1.668-1.076-.103-.212-.291-.674-.857-.674-.244 0-.856.187-.856.77 0 1.146 1.28 2.313 3.505 2.313 1.163 0 3.333-.403 3.334-2.49 0-1.816-1.832-2.135-3.18-2.482-.368-.095-1.743-.247-1.743-.967 0-.214.299-.727 1.376-.727 1.11 0 1.352.52 1.499.79.123.213.224.378.348.457a.873.873 0 001.1-.092.78.78 0 00.24-.556C10.956 5.028 9.886 4 7.88 4z" fill="#fff"/></svg><svg fill="none" viewBox="0 0 17 14" id="teleg" xmlns="http://www.w3.org/2000/svg"><path d="M16.952 1.275l-2.566 11.88c-.193.838-.698 1.047-1.415.652L9.06 10.98l-1.885 1.78c-.209.206-.384.377-.786.377l.281-3.909L13.916 2.8c.315-.276-.069-.429-.49-.153L4.47 8.184.614 6.999C-.225 6.74-.24 6.175.79 5.78L15.87.075c.698-.258 1.31.152 1.082 1.2z" fill="#fff"/></svg><svg fill="none" viewBox="0 0 16 17" id="viber" xmlns="http://www.w3.org/2000/svg"><path d="M14.196 1.636C13.777 1.252 12.084.028 8.307.012c0 0-4.451-.266-6.62 1.716C.481 2.928.057 4.69.01 6.872c-.046 2.182-.102 6.27 3.856 7.379h.003l-.004 1.693s-.026.685.429.823c.547.17.87-.35 1.394-.912.286-.308.682-.761.982-1.106 2.708.227 4.787-.292 5.025-.367.547-.177 3.64-.57 4.142-4.659.52-4.219-.25-6.883-1.641-8.087zm.458 7.779c-.425 3.412-2.933 3.628-3.394 3.776-.198.062-2.027.515-4.323.367 0 0-1.714 2.058-2.248 2.592-.174.174-.365.158-.362-.187 0-.226.013-2.811.013-2.811-.003 0-.003 0 0 0-3.354-.926-3.157-4.407-3.12-6.227.036-1.821.382-3.314 1.403-4.318C4.46.95 8.238 1.197 8.238 1.197c3.193.012 4.722.97 5.078 1.292 1.176 1.004 1.776 3.405 1.338 6.926zm-4.58-2.651c.013.282-.412.302-.426.02-.036-.722-.375-1.073-1.074-1.113-.283-.016-.257-.44.023-.423.92.05 1.43.574 1.476 1.516zm.668.37c.033-1.39-.84-2.48-2.497-2.601-.28-.02-.25-.443.03-.423 1.91.137 2.929 1.446 2.893 3.034-.004.283-.432.27-.426-.01zm1.55.44c.002.282-.426.286-.426.003-.02-2.673-1.809-4.13-3.98-4.146-.28-.004-.28-.424 0-.424 2.428.017 4.382 1.687 4.405 4.567zm-.373 3.219v.006c-.356.624-1.022 1.313-1.707 1.093l-.007-.01c-.695-.194-2.333-1.034-3.367-1.854a8.596 8.596 0 01-1.397-1.39c-.34-.424-.683-.926-1.015-1.53-.702-1.263-.857-1.827-.857-1.827-.22-.683.468-1.345 1.097-1.7h.007c.303-.157.593-.105.787.128 0 0 .409.486.584.725.164.224.385.581.5.781.201.358.076.722-.121.873l-.396.315c-.2.16-.175.46-.175.46S6.44 9.07 8.63 9.627c0 0 .3.026.462-.174l.316-.394c.151-.196.517-.321.876-.121.485.272 1.1.696 1.51 1.08.23.186.283.472.125.774z" fill="#fff"/></svg><svg fill="none" viewBox="0 0 17 17" id="whatsapp" xmlns="http://www.w3.org/2000/svg"><path d="M8.81.2C4.403.2.818 3.783.816 8.187a7.97 7.97 0 001.067 3.994L.8 16.2l4.186-.99a7.985 7.985 0 003.818.973h.004c4.404 0 7.988-3.584 7.99-7.988a7.938 7.938 0 00-2.337-5.653A7.938 7.938 0 008.809.2zm-.002 1.6a6.36 6.36 0 014.521 1.873 6.343 6.343 0 011.87 4.52 6.399 6.399 0 01-6.393 6.39 6.399 6.399 0 01-3.053-.777l-.54-.293-2.17.512.385-1.428.173-.64-.33-.576a6.384 6.384 0 01-.854-3.194A6.399 6.399 0 018.807 1.8zM5.98 4.5c-.134 0-.35.05-.533.25-.183.2-.7.682-.7 1.664 0 .982.716 1.932.816 2.066.1.132 1.381 2.212 3.41 3.012 1.687.665 2.03.534 2.396.5.367-.033 1.182-.482 1.349-.948.166-.467.166-.868.117-.95-.05-.083-.183-.133-.383-.233s-1.18-.582-1.364-.649c-.183-.066-.317-.1-.45.1s-.515.649-.631.782c-.117.133-.233.151-.433.051-.2-.1-.843-.312-1.606-.992-.594-.529-.995-1.181-1.111-1.381-.116-.2-.011-.309.089-.408.09-.09.198-.233.298-.35.1-.117.134-.2.2-.333.067-.133.033-.25-.017-.35-.05-.1-.438-1.086-.616-1.481-.15-.332-.307-.34-.45-.345-.116-.005-.248-.005-.38-.005z" fill="#fff"/></svg></svg>